<svg xmlns="http://www.w3.org/2000/svg" viewBox="0 0 67.23 111"><defs></defs><title>Asset 3</title><g id="Layer_2" data-name="Layer 2"><g id="Layer_1-2" data-name="Layer 1"><path class="cls-1" d="M0,109.77c5.49-3,9.15-8.66,16.81-8.64,7.92,0,10.57-6.52,7.23-14.85a10.8,10.8,0,0,1-1.56-6.13A14.32,14.32,0,0,1,23.57,76c.53-1.29.69-1.16.91-1.91.72-2.38-.48-4.74-1.08-5.92a8.91,8.91,0,0,0-2.72-3.57c-3.38-2.37-4.74-6.83-5.49-9.86-1.43-5.81.27-8.3,5.45-9.8,9.31-2.69,10.67-5.23,8.24-15.29C27,21.81,28.73,15.89,35.29,12c4.28-2.56,9-5.84,14.57-2.4a1.93,1.93,0,0,0,2.32-.19C56.43,6,63.3,6.51,65.69.31c.09-.25.92-.21,1.4-.31q.06,51.12.14,102.24a8.51,8.51,0,0,1-2,6,7.49,7.49,0,0,1-5.13,2.1c-10.48.4-19.27.59-26.52.65-19.39.15-27.69-.6-27.69-.6C4.39,110.23,2.37,110,0,109.77Z"/></g></g></svg>