<svg xmlns="http://www.w3.org/2000/svg" viewBox="0 0 156.22 175.13"><title>Asset 5</title><g id="Layer_2" data-name="Layer 2"><g id="Layer_1-2" data-name="Layer 1"><path d="M149.91,174.91c-2.54,0-4.37-1.34-6.06-3-3.4-3.43-6.86-6.8-10.24-10.25C130.4,158.35,127.29,155,122,157a3.81,3.81,0,0,1-2.83-.57c-9.49-5.94-19.82-5.76-29.79-2.63-13.12,4.11-25.31.92-37.67-2.59a7.92,7.92,0,0,1-3.46-1.92c-7.07-7.26-15.3-6.16-23.63-3.2-8.7,3.09-10.57,2.66-15.94-4.75-2.33-3.22-4.3-6.8-8.29-8.37a3,3,0,0,0-.23-.78c0-10.46.07-20.92.06-31.38Q.11,56.7,0,12.63A3.36,3.36,0,0,1,2.77,9.81l150.66.06a3.56,3.56,0,0,1,2.79,3.05l-.12,161.13a1.68,1.68,0,0,1-.78.32C153.46,174,151.63,173.85,149.91,174.91Z" style="fill:#576bfc"/><path d="M149.91,174.91c1.72-1.06,3.55-.9,5.41-.54C153.6,175.42,151.76,175.16,149.91,174.91Z" style="fill:#576bfc"/><path d="M35.3,75l-1.2,0c.88-4.48-3-3-4.94-4L27.09,70a7.57,7.57,0,0,1,2.25-.85c3.8-.11,7.6-.06,11.4-.13,1,0,2.1-.24,2-1.58s-1.19-1.26-2.2-1.27c-2.46-.05-4.92-.15-7.38-.22-.09-1.92.34-2.62,1.28-3.12A47.63,47.63,0,0,1,42.24,60c.3,1.74,38.58,3.08,41,3,3.66-.06,10.65,5.67,12.66,6s4.21-1.06,6.3,0c0,.32,0,.64,0,1v1.94c-.3.67-.59,1.35-.89,2-1,.68-1.66,2-3.14,2-.15-1.46.71-3.47-2.26-3.16-1.57.17-3.21-.45-4.82-.72-7.47,0-14.95-.09-22.42-.07-1.22,0-3.09-.37-3,1.62.1,1.79,1.72.94,2.77,1l21.74.5-2,2.06c-4.57,1.79-9.35.31-14,.87-1.68.21-4.56-.51-3,3-.81,1-1.1,3.42-3.06,1.77C66,81.07,63,83.34,61.22,81c1.5,0,3,.15,4.48.06,1.21-.07,3.14.34,3-1.55s-2-1.41-3.21-1.42C60.41,78,55.29,78,50.17,78c-.25-1.84-1.61-2-3.05-2,2.57-1.86,5.49-.71,8.23-.93,3-.25,6,0,8.73-1.39C63.55,72,62.49,72,61.5,72c-7.25,0-14.5-.12-21.75,0C37.8,72,35,71.34,35.3,75Zm38.78-8.86c-1.58.07-3.17.17-4.75.19-.8,0-1.75-.35-2,.84s.71,1.37,1.56,1.42C76,69,83.07,69.94,90.17,69c.86-.12,1.67-.46,1.65-1.5a1.37,1.37,0,0,0-1.76-1.29C84.72,67,79.4,66.58,74.08,66.09ZM64,66.61c-5.77-1.14-11.13-.74-16.48-.55-1.17,0-2.64.21-2.62,1.67,0,1.82,2,1.92,3,1.78A73.43,73.43,0,0,1,59.26,69,4.72,4.72,0,0,0,64,66.61Z" style="fill:#586cf8"/><path d="M124.19,65a118.47,118.47,0,0,1-20,.94c0-1,0-1.93,0-2.9,3,.13,6.8,2.11,7.89-3,2.39,1.47,4.76.54,7.13-.06.86,3.25,4.47,1.11,6,3.07Z" style="fill:#586cf8"/><path d="M125.24,69.09c-.06-1-.12-2-.17-3,2.28,0,4.56,0,6.84,0a1.92,1.92,0,1,1-.06,3.82C129.63,69.89,127.28,70.64,125.24,69.09Z" style="fill:#586cf8"/><path d="M102.33,81.05,102.21,78a40.26,40.26,0,0,0,5.32.66c1.21,0,2.43-.43,2.45,1.35,0,1.5-1.08,2-2.33,1.93C105.87,81.77,104.11,81.36,102.33,81.05Z" style="fill:#586cf8"/><path d="M94.15,111.05c-3.69-3.45-7.91-1.39-12-1.16C86,106.59,92.62,107.24,94.15,111.05Z" style="fill:#586cf8"/><path d="M75.16,131a6.4,6.4,0,0,1,7,0A5.81,5.81,0,0,1,75.16,131Z" style="fill:#586cf8"/><path d="M112.3,73l-2.12-1V69l8,0c-1.37,2.18-5.37-.57-5.91,3.16C112.26,72.42,112.27,72.7,112.3,73Z" style="fill:#586cf8"/><path d="M96.18,63h6v2.88l-2,0C99.93,63.45,97.16,64.47,96.18,63Z" style="fill:#586cf8"/><path d="M37.26,75.15c2.7,0,5.49-.9,8,.8C42.61,75.72,39.8,76.75,37.26,75.15Z" style="fill:#586cf8"/><path d="M58.16,110l-4-1C55.94,107.63,57.41,107.41,58.16,110Z" style="fill:#586cf8"/><path d="M49.19,130.12l4,.88C51.49,132.34,50,132.58,49.19,130.12Z" style="fill:#586cf8"/><path d="M98.24,81.13c1.3-.26,2.61-.92,3.91,0A2.7,2.7,0,0,1,98.24,81.13Z" style="fill:#586cf8"/><path d="M29.21,75.08c1.31-.85,2.64.22,4,0A2.59,2.59,0,0,1,29.21,75.08Z" style="fill:#586cf8"/><path d="M126.17,113a2,2,0,0,1,2-1.95A2,2,0,0,1,126.17,113Z" style="fill:#586cf8"/><path d="M130.29,62l-.18-2c.49.29,1.32.51,1.42.91C131.72,61.71,130.9,61.85,130.29,62Z" style="fill:#586cf8"/><path d="M22.23,118.82l2.95.18C24.12,120.14,23.13,120.22,22.23,118.82Z" style="fill:#586cf8"/><path d="M102.32,62l0-2,1.89,0c-.32.66-.63,1.32-.94,2Z" style="fill:#586cf8"/><path d="M120.21,69.08l3,0A1.75,1.75,0,0,1,120.21,69.08Z" style="fill:#586cf8"/><path d="M73.2,81.05h3A1.76,1.76,0,0,1,73.2,81.05Z" style="fill:#586cf8"/><path d="M22.18,69c1.1.11,2.26,0,3.05,1C24.09,70,23,70,22.18,69Z" style="fill:#586cf8"/><path d="M79.16,109.07l-2.07-1A2.29,2.29,0,0,1,79.16,109.07Z" style="fill:#586cf8"/><path d="M61.13,108.91l-1,1C60.32,109.38,60.07,108.52,61.13,108.91Z" style="fill:#586cf8"/><path d="M133.28,118c0-.65-.09-1.3-.14-1.95C134,116.6,134.13,117.24,133.28,118Z" style="fill:#586cf8"/><path d="M27.28,72c-.08.64-.15,1.29-.22,1.93C26.22,73.21,26.33,72.57,27.28,72Z" style="fill:#586cf8"/><path d="M97.17,109.74l-1,.29c.19-.36.38-.72.56-1.09Z" style="fill:#586cf8"/><path d="M84.21,81.07l2-.08C85.56,81.86,84.91,81.94,84.21,81.07Z" style="fill:#586cf8"/><path d="M80.21,81.08l1.93,0C81.48,81.92,80.84,81.89,80.21,81.08Z" style="fill:#586cf8"/><path d="M69.2,109l-2.09-1Z" style="fill:#586cf8"/><path d="M28.33,60.07l-.66,1.15L27.1,60Z" style="fill:#586cf8"/><path d="M99.22,109l-1,.76Z" style="fill:#586cf8"/><path d="M54.08,131c.4-.56.8-.55,1.2,0Z" style="fill:#586cf8"/><path d="M117.17,75h1C117.85,75.46,117.51,75.46,117.17,75Z" style="fill:#6577e8"/><path d="M118.17,69c.35-.5.69-.46,1,0Z" style="fill:#586cf8"/><path d="M73.07,131c.4-.54.8-.55,1.18,0Z" style="fill:#586cf8"/><polygon points="81.67 49.38 81.84 49.48 81.66 49.57 81.67 49.38" style="fill:#758691"/><path d="M78.89,123.16c-.11,0-.25.1-.31.06s-.11-.22-.16-.33l.54-.1Z" style="fill:#8394f7"/><path d="M102.32,62l.92,0,.93,1c0,1,0,1.94,0,2.9l-2,0V63C102.23,62.67,102.27,62.34,102.32,62Z" style="fill:#576bfc"/><path d="M109.22,69h-1C108.52,68.48,108.87,68.5,109.22,69Z" style="fill:#586cf8"/><path d="M72.18,98l.31.17L72.18,98Z" style="fill:#576bfc"/><rect width="156.21" height="21.33" style="fill:#576bfc"/></g></g></svg>