<svg xmlns="http://www.w3.org/2000/svg" xmlns:xlink="http://www.w3.org/1999/xlink" viewBox="0 0 282.98 313.99"><defs><mask id="mask" x="0" y="282.93" width="282.98" height="31.07" maskUnits="userSpaceOnUse"><g id="mask-2"><polygon id="path-1" points="0 282.93 282.98 282.93 282.98 313.99 0 313.99 0 282.93" style="fill:#fff"/></g></mask><mask id="mask-2-2" x="158.76" y="0" width="2" height="19.88" maskUnits="userSpaceOnUse"><g id="mask-4"><polygon id="path-3" points="158.76 0 160.76 0 160.76 19.89 158.76 19.89 158.76 0" style="fill:#fff"/></g></mask></defs><title>Asset 1</title><g id="Layer_2" data-name="Layer 2"><g id="Layer_1-2" data-name="Layer 1"><g id="Page-1"><g id="_03" data-name="03"><g id="Group-109"><path id="Fill-1" d="M107.26,140.92c-3.34,3.15-4.6,8.07-1.43,11.85a9.42,9.42,0,0,0,12.53,1.48c9-6.86-.38-19.53-10.12-16.91a1.59,1.59,0,0,0,.42,3.12c2.85.16,5.9.27,8.17,2.24a5.77,5.77,0,0,1,.5,8.11c-5.31,6.44-14.53-3-9-8.79a.78.78,0,0,0-1.11-1.1" style="fill:#7cabff"/><path id="Fill-3" d="M201,152.31c1.19,4.56,2.5,9.07,3.86,13.57a1.36,1.36,0,0,0,2.23.79c3.55-2.48,7.1-4.93,10.46-7.69a1.33,1.33,0,0,0-.13-2c-3.94-2.79-9.26-6.91-14.26-6.94-1.27,0-2.16,1.84-.87,2.61,2,1.2,4.43,1.63,6.59,2.55a35.5,35.5,0,0,1,7.14,3.94l.15-2.25c-3.76,2.39-7.3,5.07-10.87,7.74l2.11.44c-1.53-4.46-3.09-8.88-4.78-13.27a.87.87,0,0,0-1.63.56" style="fill:#ff7081"/><path id="Fill-5" d="M226.41,174.88A105.24,105.24,0,0,0,242.26,166c1.79-1.26,0-3.73-1.87-2.76a104.79,104.79,0,0,0-15,9.69c-.93.71-.24,2.56,1,2" style="fill:#fbc580"/><path id="Fill-7" d="M26,192.9a98.15,98.15,0,0,0-4.74-16.85,1.68,1.68,0,0,0-3.19,1,97.21,97.21,0,0,0,5.73,16.23c.46,1,2.45.86,2.2-.42" style="fill:#ff957e"/><path id="Fill-9" d="M43.88,139.39l-.34-.3a3.85,3.85,0,1,0-5.45,5.44l.3.34a3.88,3.88,0,1,0,5.49-5.48" style="fill:#241352"/><path id="Fill-11" d="M187,293.18s-57.07,13.23-80-9.61L115.2,229c2.5-15.68,1-45.86,13.06-56.57a21.25,21.25,0,0,1,4.58-3.11c8.46-4.06,23.5-6.26,37.95-6.32,17.54-.07,35.6,13.16,40.21,30l-19,44.27Z" style="fill:#576bfc"/><path id="Fill-13" d="M182.34,199.78s25.6,49,12.89,51.57c-41.83,8.58-66.1,15.61-66.1,15.61L127,283.09c.62,2.43,84.61.33,94.56-10.88,7-7.91,16.36-26.19-3.51-65.76L212,193Z" style="fill:#ffafa7"/><path id="Fill-15" d="M135,172.9,71.17,197.34l-2-33.12L55.5,159s-19.81,53.17,5,63.06,52.71-8.39,52.71-8.39Z" style="fill:#ffafa7"/><path id="Fill-17" d="M142,166c-22,7-35.07,15.32-66,28.32L91.88,230l27.38-8.85Z" style="fill:#576bfc"/><polyline id="Fill-19" points="177.01 192.4 192.98 229.99 229 223.33 204.73 180.99 176 192.4" style="fill:#576bfc"/><path id="Fill-21" d="M159.44,217.73c7.72-.41,15.35-.09,23.07,0a.48.48,0,1,0,0-1,120.15,120.15,0,0,0-23.07.1c-.58,0-.59.89,0,.86" style="fill:#002c68"/><path id="Fill-23" d="M193.69,174c-26,2.37-8.21,41-1.56,52.72a.58.58,0,0,0,1-.59c-6.61-11.82-24.32-47.79.64-51.49.36,0,.28-.67-.08-.64" style="fill:#002c68"/><path id="Fill-25" d="M121.33,196.24A210.68,210.68,0,0,0,115,235.51c0,.54.91.68,1,.13,1.92-13.1,3.85-26.16,6-39.23.06-.41-.56-.6-.67-.17" style="fill:#002c68"/><path id="Fill-27" d="M183.3,125q.6-8.33,1.21-16.65c4.37-1.23,6.65-6.81,4.9-11s-6.7-6.54-11.2-5.9c2.84-1.92,2.62-6.53.29-9s-6-3.34-9.42-3.47-6.9.28-10.28-.34c-3-.56-5.92-1.92-8.94-1.54s-5.91,3.77-4.28,6.33c-4.35-.64-9.07-1.22-12.93.88s-5.82,8-2.49,10.93c-2.2,1.11-2.75,4.28-1.51,6.41a7.74,7.74,0,0,0,6.22,3.43,22.9,22.9,0,0,0,7.28-1.07" style="fill:#241352"/><path id="Fill-29" d="M182.45,114.25l-.87,11.49s9.68,1.32,6.93,10.23-9.39,5-9.39,5-1.66,22.83-24.85,15.59c-18.46-5.76-17.33-29.86-15-50.42a13.65,13.65,0,0,1,16.17-11.9L169.4,97a16.3,16.3,0,0,1,13,17.26" style="fill:#ffafa7"/><path id="Fill-31" d="M181,136l-6.29,33.15a13.48,13.48,0,0,1-16.37,10.49,13.31,13.31,0,0,1-10.13-15.26l3.42-19Z" style="fill:#ffafa7"/><path id="Fill-33" d="M155,136.08s.1.49-.57.83-1.82-.38-2.11-1.56a11.45,11.45,0,0,1-.26-3.9c.08-1.5.16-3,.23-4.62.4-6.56.95-11.86,1.25-11.84s.22,5.35-.16,11.91c-.12,1.59-.22,3.12-.32,4.61a12.77,12.77,0,0,0,0,3.61c.17,1,.84,1.44,1.27,1.37s.6-.47.68-.41" style="fill:#241352"/><path id="Fill-35" d="M147,154a28,28,0,0,1,3.23,1.34,23.47,23.47,0,0,0,16.46.3,30.24,30.24,0,0,1,3.3-1.22c.08.1-.94,1-3,1.87a20.88,20.88,0,0,1-8.62,1.69,20.49,20.49,0,0,1-8.53-2c-2-1-3-1.88-2.87-2" style="fill:#241352"/><path id="Fill-37" d="M152,140.79c.14-.11.67.35,1.68.75a6.59,6.59,0,0,0,4.11.26,5.76,5.76,0,0,0,3.17-2.33c.57-.85.7-1.49.87-1.48s.31.71-.14,1.78a5.42,5.42,0,0,1-3.54,3,6.38,6.38,0,0,1-4.86-.6c-1.07-.64-1.4-1.31-1.29-1.37" style="fill:#241352"/><path id="Fill-39" d="M182,136.79c0-.17.57-.25,1.21-.65a1.49,1.49,0,0,0,.7-.9c.1-.41,0-.79-.34-.9a.55.55,0,0,0-.58.08l-.93-.48c.88-1.8,1.66-3,1.89-2.94s-.17,1.51-.93,3.37l-.93-.49a1.53,1.53,0,0,1,1.87-.56,1.58,1.58,0,0,1,1,1,1.9,1.9,0,0,1-.06,1.21,2.13,2.13,0,0,1-1.33,1.28c-1,.31-1.54.07-1.54-.05" style="fill:#241352"/><path id="Fill-41" d="M164,114.69c-.1-.26.93-.86,2.23-.48s1.92,1.47,1.72,1.64-.94-.35-2-.63-1.92-.25-2-.53" style="fill:#241352"/><path id="Fill-43" d="M143,110.17c-.13-.25,1-1,2.58-.86s2.56,1.08,2.39,1.3-1.19-.16-2.48-.26-2.37.09-2.49-.18" style="fill:#241352"/><path id="Fill-45" d="M181,126.37c-6.48-6.44-8.39-17.18-10.15-26.23A22.35,22.35,0,0,1,149.64,103a34.47,34.47,0,0,1-7.55,6.72,3.28,3.28,0,0,1-2.67.75c-1.08-.33-1.57-1.6-1.83-2.73a19.72,19.72,0,0,1,.38-11,13.11,13.11,0,0,1,7.22-7.9c3.62-1.43,7.7-.81,11.47.19a63.13,63.13,0,0,1,16.19,6.82c5,3,9.72,6.88,11.83,12.34s2.09,16-3,18.81" style="fill:#241352"/><path id="Fill-47" d="M165.88,123c-.28,0-.46-.7-.4-1.53s.35-1.49.64-1.47.47.71.4,1.54-.35,1.48-.64,1.46" style="fill:#241352"/><path id="Fill-49" d="M146.88,121c-.29,0-.46-.7-.4-1.53s.35-1.49.64-1.47.47.71.4,1.54-.35,1.48-.64,1.46" style="fill:#241352"/><path id="Fill-51" d="M54,160.52s2.83-17.46,6.21-17.27,10.13,0,10.13,0,.56-16.62,2.44-14,2.46,25-4.77,35.71Z" style="fill:#ffafa7"/><path id="Fill-53" d="M129,267s-29.57,5.26-29,9.17a28.64,28.64,0,0,0,2.65,7.83l26.34-.63Z" style="fill:#ffafa7"/><polygon id="Fill-55" points="162 284.68 161.77 280.51 99.39 276.71 78.47 220.99 10 224.74 33.36 284.99 162 284.68" style="fill:#ff5766"/><path id="Fill-57" d="M48,251.27A5,5,0,1,0,52.73,246,5,5,0,0,0,48,251.27" style="fill:#fff"/><path id="Fill-59" d="M46,251.38A7,7,0,1,0,52.62,244,7,7,0,0,0,46,251.38" style="fill:#fff"/><g id="Group-63"><g style="mask:url(#mask)"><path id="Fill-61" d="M0,286.18l267.33-3.25,15.65,8S77.76,345.85,0,286.18" style="fill:#75a7ff"/></g></g><path id="Fill-64" d="M158,25.05s-13.58.67-14,15.07c0,0,.23,7.87,4.53,10.8S152.6,57,152.6,57h11.32s-.46-4.05,1.35-6.3,6.34-7,5.66-13.94-5.88-12.38-12.9-11.7" style="fill:#ffbc7a"/><path id="Fill-66" d="M152.46,60.66c4-.18,8,.25,12,0,.57,0,.77-.9.14-1-3.86-.78-8.27-.35-12.15.08-.6.06-.63.95,0,.92" style="fill:#6f35a5"/><path id="Fill-68" d="M154.49,64.68c1.65-.09,3.32-.15,5-.14s3.34.28,5,.16a.52.52,0,0,0,.15-1c-3.17-.78-7-.33-10.25.09-.55.08-.42.94.14.91" style="fill:#6f35a5"/><path id="Fill-70" d="M155.44,66.26c1.32.1,2.69.48,4,.45a.6.6,0,0,0,.15-1.16,12.3,12.3,0,0,0-4.15-.21.46.46,0,0,0,0,.92" style="fill:#6f35a5"/><path id="Fill-72" d="M156.11,56.34c.33-4.07-1.08-8.58-1.8-12.58l-1.23.51c.59.95,1.58,3.67,3.09,3.58s2.14-2.81,2.36-3.92h-1.35c.31,1.26.34,4.3,2.37,4,1.73-.25,2.89-2.73,3.41-4.09l-1.4-.38c-1,4-1.54,9-.49,13.05a.69.69,0,0,0,1.34-.18c-.13-4.22-.74-8.35.55-12.49.28-.89-1.06-1.2-1.4-.38-.19.47-1.3,3.15-2.35,2.8-.27-.08-.62-2.47-.68-2.7a.71.71,0,0,0-1.35,0c-.15.82-.5,3-1.49,2.38-.58-.38-1.08-1.75-1.45-2.34a.68.68,0,0,0-1.23.5c.65,4,.83,8.66,2.48,12.4.15.32.6.12.62-.17" style="fill:#6f35a5"/><path id="Fill-74" d="M115.63,52c6.34-1.72,12.89-3.2,19.08-5.27.5-.17.32-.81-.22-.69-6.46,1.36-12.8,3.39-19.14,5.12a.44.44,0,1,0,.28.84" style="fill:#ffbc7a"/><path id="Fill-76" d="M123.54,33.68c3.95-.07,8,.14,12-.32a.49.49,0,1,0,0-1c-3.93-.27-8,.14-12,.25a.52.52,0,1,0,0,1" style="fill:#ffbc7a"/><path id="Fill-78" d="M141.81,27c-4.41-3.93-8.63-8.82-13.66-11.93-.78-.48-1.52.6-1,1.26,3.86,4.46,9.27,7.77,13.81,11.48.56.46,1.36-.32.8-.81" style="fill:#ffbc7a"/><path id="Fill-80" d="M152,21.7c0-1.3-.9-2.56-1.49-3.64a19.82,19.82,0,0,0-2.25-3.85A.74.74,0,0,0,147,15a19.36,19.36,0,0,0,2.18,3.9c.64,1.06,1.26,2.54,2.36,3.09a.29.29,0,0,0,.42-.26" style="fill:#ffbc7a"/><g id="Group-84"><g style="mask:url(#mask-2-2)"><path id="Fill-82" d="M160.53,19.29A142.64,142.64,0,0,0,160.27.68a.64.64,0,1,0-1.28,0,142.78,142.78,0,0,0,.42,18.61.56.56,0,1,0,1.12,0" style="fill:#ffbc7a"/></g></g><path id="Fill-85" d="M167,21.74a50.56,50.56,0,0,0,4-6.69.7.7,0,0,0-1.19-.72,50.3,50.3,0,0,0-3.67,6.88.52.52,0,0,0,.89.53" style="fill:#ffbc7a"/><path id="Fill-87" d="M173.59,26a92.4,92.4,0,0,0,8.23-4.21c2.67-1.45,5.67-2.72,8-4.68a.62.62,0,0,0-.6-1c-2.73.88-5.19,2.62-7.67,4a94.63,94.63,0,0,0-8.33,5c-.41.29-.18,1.12.38.89" style="fill:#ffbc7a"/><path id="Fill-89" d="M175.45,34.66c2.37.75,6.45.2,8.3-1.4.64-.56-.05-1.38-.81-1.26-1.27.2-2.44.81-3.7,1.08s-2.54.26-3.79.49a.56.56,0,0,0,0,1.09" style="fill:#ffbc7a"/><path id="Fill-91" d="M177.49,45.16C185.56,47,193.9,49,202.17,50a.78.78,0,0,0,.23-1.53c-7.92-2.11-16.42-3.2-24.56-4.46-.83-.13-1.21,1-.35,1.16" style="fill:#ffbc7a"/><path id="Fill-93" d="M60.23,188.23c.28-1.81.22-3.53,1.25-5.13,2.05-3.18,5-2.38,7.78-1s5.57,2.28,8.69.95c4.88-2.08,7.17-9.33,2.52-12.74-1.51-1.1-3,.72-2.79,2.12.28,2,1.26,4.09-.43,5.77-2.27,2.24-4.93.36-7.19-.65a9.54,9.54,0,0,0-7.55-.32c-4.34,1.73-7.49,7.53-4,11.44a1.06,1.06,0,0,0,1.76-.46" style="fill:#7e2e84"/><path id="Fill-95" d="M103.89,243.66a138.5,138.5,0,0,0,18.56,0c2.23-.18,2-2.59-.21-2.65a134.57,134.57,0,0,0-18.18.86c-1.19.12-1.55,1.68-.17,1.76" style="fill:#7e2e84"/><path id="Fill-97" d="M209.15,87.4C208.34,89,211,129.87,211,129.87l20-1.67L228.66,139l9.77-11.09L258,125.62,256.81,86Z" style="fill:#75a7ff"/><path id="Fill-99" d="M220,105.41,224.24,120l5.92-1.14-.58-2.94,1.68-1,3.18,3.11,10-1.94,1.3-3.8-2.86-.63,3.69-1.23-.8-4.07-3.19.28,4.38-1.19-1-5.06-10.21,2s.66-7.07-2.35-9.37l-2.31.45a12.43,12.43,0,0,1,.71,3.59,71.9,71.9,0,0,1-2.08,7.67l-3.13,1.46-.74-2.06Z" style="fill:#fff"/><polygon id="Fill-101" points="14 77.99 17.41 118.68 92.23 118.68 96.37 132.99 100.74 117.29 115 116.47 108.43 80.02 14 77.99" style="fill:#75a7ff"/><path id="Fill-103" d="M23.6,92.83A643.91,643.91,0,0,1,100.32,94c.91.07.91-1.2,0-1.26a635.61,635.61,0,0,0-76.72-1,.55.55,0,1,0,0,1.1" style="fill:#fff"/><path id="Fill-105" d="M25.6,101.83A643.88,643.88,0,0,1,102.32,103c.91.07.91-1.2,0-1.26a635.58,635.58,0,0,0-76.72-1,.55.55,0,1,0,0,1.1" style="fill:#fff"/><path id="Fill-107" d="M25.6,108.17c17.31.55,34.42-.63,51.71.82.92.08.92-1.29,0-1.35C60,106.53,42.9,107.24,25.6,107a.59.59,0,1,0,0,1.17" style="fill:#fff"/></g></g></g></g></g></svg>