<?xml version="1.0" encoding="UTF-8"?>
<svg viewBox="0 0 92.11 84.41" xmlns="http://www.w3.org/2000/svg">
<defs>
</defs>
<title>Asset 1</title>
<g data-name="Layer 2">
<g data-name="Layer 1">
<path class="cls-1" d="M92.11,1.21A8,8,0,0,0,90.93,2.8c-2.89,7.32-8,10.12-16,9.31-4.62-.47-7.56,3-8.77,7.44-.57,2.07-1.37,3.64-3.47,4.47-4,1.58-4.62,4.86-4,8.62C59.13,35.1,59.84,37.53,60,40c.35,5.15-1.63,7.62-6.64,8-4,.33-7.92.7-11.54,2.68-1.53.84-3.23.53-4.86,0-2.07-.64-4.14-1.26-6.23-1.8-13.87-3.56-25.43,5.5-25.68,20C5,74.29,6.17,80,1.52,84.41c-2.06-1.63-1.43-4-1.43-6Q0,40.69,0,3A4.23,4.23,0,0,1,3,.08q41.45,0,82.9.06C88,.14,90.3-.57,92.11,1.21Z"/>
</g>
</g>
</svg>
